<?xml version="1.0" encoding="UTF-8"?>
<svg width="18px" height="50px" viewBox="0 0 18 50" version="1.1" xmlns="http://www.w3.org/2000/svg" xmlns:xlink="http://www.w3.org/1999/xlink">
    <!-- Generator: Sketch 53.1 (72631) - https://sketchapp.com -->
    <title>location</title>
    <desc>Created with Sketch.</desc>
    <g id="Page-1" stroke="none" stroke-width="1" fill="none" fill-rule="evenodd">
        <g id="location" fill="#000000" fill-rule="nonzero">
            <path d="M7.5002584,48.5008641 C7.5001157,49.328814 8.1657972,50 9,50 L9,50 C9.8284271,50 10.4998834,49.3279015 10.49974,48.5008641 L10.4945104,18.3495432 C10.4943908,17.6594387 11.0015222,16.8827376 11.6450251,16.6071064 L11.9925123,16.4582674 C15.2104773,15.2476451 17.5,12.1411959 17.5,8.5 C17.5,3.8055796 13.6944204,0 9,0 C4.3055796,0 0.5,3.8055796 0.5,8.5 C0.5,12.1416647 2.7901122,15.248445 6.0087306,16.4587348 L6.3559212,16.6074654 C6.99091,16.8794839 7.5055741,17.6572353 7.5054548,18.3495432 L7.5002584,48.5008641 Z M9,14 C5.9624339,14 3.5,11.5375661 3.5,8.5 C3.5,5.4624339 5.9624339,3 9,3 C12.0375661,3 14.5,5.4624339 14.5,8.5 C14.5,11.5375661 12.0375661,14 9,14 Z" id="Shape"></path>
        </g>
    </g>
</svg>