<?xml version="1.0" encoding="UTF-8"?>
<svg viewBox="0 0 387 54" version="1.1" xmlns="http://www.w3.org/2000/svg" xmlns:xlink="http://www.w3.org/1999/xlink">
    <!-- Generator: Sketch 53.1 (72631) - https://sketchapp.com -->
    <title>logo</title>
    <desc>Created with Sketch.</desc>
    <g id="Page-1" stroke="none" stroke-width="1" fill="none" fill-rule="evenodd">
        <g id="logo" fill-rule="nonzero">
            <g id="Group">
                <path d="M5.73,27.46 C6.89,25.39 8.21,23.87 9.67,22.9 C11.13,21.93 12.43,21.49 13.58,21.59 C15.19,21.72 16.56,22.77 17.69,24.73 C18.82,26.69 19.22,29.55 18.91,33.32 C18.66,36.29 15.37,42.29 14.59,43.08 C13.67,44 12.13,45.42 7.64,46.8 C7.45,46.75 4.44,47.44 4.08,47.36 L0.89,47.09 L3.2,0.18 L6.39,0.45 L5.73,27.46 Z M3.88,44.04 L3.88,44.04 C5.35,44.29 4.88,44.22 5.85,44.3 C7.79,44.46 12.32,39.38 14.32,34.36 C15.28,31.96 13.05,30.04 12.4,29.44 C9.83,27.11 6.56,32.43 3.88,44.04 Z" id="Shape" fill="#262526"></path>
                <path d="M29.37,39.84 C28.07,36.81 28.46,33.48 30.55,29.84 C32.64,26.21 35.93,23.42 40.42,21.49 C44.64,19.67 48.72,19.14 52.66,19.9 C56.59,20.66 59.23,22.59 60.56,25.69 C61.91,28.83 61.49,32.27 59.31,36.01 C57.13,39.76 53.9,42.55 49.63,44.39 C45.41,46.21 41.31,46.68 37.34,45.8 C33.36,44.92 30.71,42.94 29.37,39.84 Z M35.2,37.14 C36.47,40.1 38.5,42.15 41.27,43.28 C44.04,44.41 46.85,44.37 49.69,43.15 C52.29,42.03 54.18,40.13 55.36,37.43 C56.54,34.74 56.48,31.87 55.17,28.82 C54,26.1 52,24.09 49.18,22.78 C46.36,21.47 43.43,21.47 40.4,22.78 C37.58,23.99 35.7,25.95 34.73,28.66 C33.79,31.37 33.94,34.2 35.2,37.14 Z" id="Shape" fill="#262526"></path>
                <path d="M128.87,47.25 C127.75,44.66 128.09,41.8 129.88,38.69 C131.67,35.58 134.48,33.2 138.32,31.55 C141.93,30 145.42,29.54 148.79,30.19 C152.16,30.84 154.41,32.49 155.55,35.14 C156.7,37.82 156.35,40.77 154.48,43.97 C152.61,47.18 149.85,49.56 146.2,51.14 C142.59,52.69 139.08,53.1 135.69,52.35 C132.28,51.61 130.01,49.91 128.87,47.25 Z M133.86,44.95 C134.95,47.49 136.68,49.24 139.06,50.21 C141.43,51.18 143.83,51.14 146.26,50.1 C148.48,49.14 150.1,47.51 151.11,45.21 C152.12,42.91 152.07,40.45 150.95,37.84 C149.95,35.51 148.24,33.79 145.83,32.67 C143.42,31.55 140.91,31.55 138.32,32.67 C135.91,33.71 134.3,35.38 133.47,37.7 C132.64,40.01 132.77,42.43 133.86,44.95 Z" id="Shape" fill="#000000"></path>
                <path d="M236.87,24.61 C236.09,21.56 237.02,18.45 239.67,15.29 C242.32,12.13 246.02,9.94 250.75,8.73 C255.2,7.59 259.3,7.64 263.05,8.9 C266.8,10.16 269.07,12.35 269.87,15.47 C270.68,18.63 269.7,21.83 266.94,25.09 C264.18,28.34 260.54,30.55 256.04,31.71 C251.59,32.85 247.48,32.74 243.72,31.37 C239.96,29.98 237.67,27.73 236.87,24.61 Z M243.05,22.86 C243.82,25.84 245.47,28.06 248.01,29.52 C250.55,30.98 253.32,31.32 256.31,30.55 C259.05,29.85 261.22,28.3 262.83,25.91 C264.44,23.52 264.85,20.79 264.06,17.71 C263.36,14.97 261.72,12.79 259.16,11.16 C256.6,9.53 253.72,9.13 250.52,9.95 C247.55,10.71 245.37,12.31 243.98,14.75 C242.6,17.19 242.29,19.89 243.05,22.86 Z" id="Shape" fill="#262526"></path>
                <path d="M353.14,36.37 C352.32,33.17 353.22,29.94 355.84,26.67 C358.46,23.4 362.14,21.16 366.88,19.94 C371.33,18.8 375.44,18.9 379.22,20.26 C382.99,21.61 385.3,23.93 386.14,27.2 C386.99,30.51 386.05,33.84 383.31,37.21 C380.57,40.57 376.95,42.84 372.45,43.99 C368,45.13 363.88,44.97 360.09,43.49 C356.29,42.01 353.98,39.64 353.14,36.37 Z M359.31,34.61 C360.11,37.73 361.8,40.07 364.36,41.62 C366.93,43.17 369.71,43.56 372.7,42.79 C375.44,42.09 377.6,40.5 379.19,38.02 C380.78,35.54 381.16,32.69 380.33,29.48 C379.59,26.61 377.93,24.31 375.35,22.59 C372.77,20.86 369.87,20.41 366.68,21.23 C363.71,21.99 361.54,23.64 360.17,26.17 C358.8,28.68 358.52,31.5 359.31,34.61 Z" id="Shape" fill="#262526"></path>
                <g transform="translate(329.000000, 5.000000)" fill="#262526">
                    <rect id="Rectangle" x="0.85" y="0.99" width="2.08" height="34.51"></rect>
                    <rect id="Rectangle" x="11.5" y="14.23" width="2.08" height="34.51"></rect>
                    <path d="M1.29,35.7 C1.08,35.35 0.89,34.96 0.72,34.52 C0.66,34.36 0.58,34.15 0.5,33.9 C0.41,33.65 0.38,33.5 0.39,33.46 C0.39,33.39 0.44,33.26 0.56,33.08 C0.68,32.9 0.79,32.77 0.88,32.7 C1.39,32.28 1.9,31.92 2.42,31.62 C2.93,31.33 3.46,31.06 3.99,30.82 C4.52,30.58 5.07,30.35 5.65,30.15 C6.22,29.95 6.83,29.73 7.46,29.48 C7.61,29.42 7.9,29.31 8.31,29.15 C8.75,28.98 9.2,28.81 9.68,28.65 C10.16,28.49 10.6,28.32 11.01,28.17 C11.42,28.01 11.72,27.9 11.89,27.83 C12.36,27.76 12.77,27.94 13.09,28.36 C13.42,28.78 13.69,29.27 13.9,29.84 C14.05,30.24 14.07,30.61 13.95,30.96 C13.83,31.31 13.66,31.63 13.42,31.93 C13.18,32.23 12.93,32.49 12.65,32.71 C12.37,32.93 12.15,33.08 11.97,33.14 C11.95,33.15 11.85,33.19 11.68,33.25 C11.53,33.31 11.34,33.39 11.12,33.49 C10.9,33.6 10.67,33.69 10.43,33.79 C10.21,33.87 10.04,33.94 9.91,33.99 C9.78,34.04 9.58,34.12 9.32,34.22 C9.08,34.31 8.83,34.4 8.57,34.48 C8.31,34.56 8.09,34.64 7.89,34.72 C7.69,34.8 7.58,34.84 7.56,34.85 C7.36,34.93 7.02,35.03 6.52,35.17 C6.02,35.31 5.49,35.45 4.93,35.62 C4.37,35.78 3.84,35.93 3.34,36.06 C2.84,36.2 2.49,36.29 2.28,36.33 C1.83,36.26 1.5,36.06 1.29,35.7 Z M1.25,20.96 C1.06,20.63 0.88,20.24 0.7,19.78 C0.65,19.65 0.57,19.44 0.48,19.15 C0.38,18.87 0.33,18.71 0.32,18.67 C0.29,18.6 0.3,18.5 0.35,18.35 C0.39,18.2 0.43,18.1 0.46,18.05 C0.51,17.99 0.62,17.9 0.79,17.78 C0.96,17.66 1.13,17.52 1.33,17.37 C1.52,17.22 1.71,17.08 1.88,16.96 C2.06,16.84 2.2,16.75 2.31,16.71 C2.56,16.58 2.93,16.38 3.43,16.11 C3.93,15.84 4.44,15.58 4.96,15.32 C5.49,15.06 5.97,14.83 6.4,14.62 C6.83,14.42 7.1,14.29 7.21,14.25 C7.36,14.19 7.66,14.1 8.1,13.96 C8.54,13.83 9,13.7 9.49,13.57 C9.98,13.44 10.44,13.33 10.88,13.23 C11.32,13.13 11.63,13.07 11.82,13.04 C12.34,13.1 12.73,13.25 12.98,13.47 C13.23,13.7 13.48,14.14 13.74,14.8 C13.99,15.46 14,16.04 13.75,16.53 C13.5,17.02 13.15,17.44 12.7,17.79 C12.24,18.13 11.75,18.42 11.23,18.64 C10.7,18.86 10.3,19.03 10.01,19.14 C9.88,19.19 9.69,19.26 9.46,19.35 C9.24,19.43 9.02,19.51 8.78,19.58 C8.54,19.65 8.33,19.73 8.13,19.8 C7.96,19.87 7.86,19.9 7.84,19.91 C7.64,19.99 7.27,20.1 6.73,20.25 C6.19,20.4 5.62,20.56 5.04,20.73 C4.45,20.9 3.89,21.06 3.35,21.21 C2.81,21.36 2.43,21.46 2.22,21.5 C1.76,21.47 1.44,21.28 1.25,20.96 Z M2.75,35.51 L3.76,35.12 L3.17,33.59 L2.16,33.98 L2.75,35.51 Z" id="Shape"></path>
                </g>
            </g>
        </g>
    </g>
</svg>
