<?xml version="1.0" encoding="UTF-8"?>
<svg viewBox="0 0 387 418" version="1.1" xmlns="http://www.w3.org/2000/svg" xmlns:xlink="http://www.w3.org/1999/xlink">
    <!-- Generator: Sketch 53 (72520) - https://sketchapp.com -->
    <title>Group</title>
    <desc>Created with Sketch.</desc>
    <g id="Page-1" stroke="none" stroke-width="1" fill="none" fill-rule="evenodd">
        <g id="meerbach-logo" transform="translate(-68.000000, -3184.000000)">
            <g id="Group" transform="translate(0.000000, 3184.000000)">
                <g transform="translate(165.000000, 0.000000)" fill-rule="nonzero">
                    <g>
                        <rect id="Rectangle" fill="#120F0E" x="172.45" y="336.69" width="11.07" height="39.28"></rect>
                        <g>
                            <rect id="Rectangle" fill="#120F0E" x="9.05" y="336.68" width="174.47" height="33.2"></rect>
                            <rect id="Rectangle" fill="#120F0E" x="9.05" y="336.68" width="11.07" height="39.28"></rect>
                            <path d="M152.52,250.1 C112.59,232.38 94.65,180.46 87.21,162.68 C82.04,150.34 66.29,110.05 59.44,66.16 C54.26,32.91 52.85,20.46 53.28,0.9 L1.32,0.9 C1.52,34.76 -0.42,49.04 0.41,161.29 L0.4,245.47 L0.4,291.07 L0.4,336.67 L192.19,336.69 C192.19,336.69 192.2,268.71 192.2,259.31 C179.67,258.08 168.95,257.39 152.52,250.1 Z" id="Path" fill="#120F0E"></path>
                            <path d="M23.68,339.1 L23.68,348.04 L23.68,358.93 C23.68,364.91 26.72,363.78 30.46,363.78 L96.29,363.79 L162.12,363.8 C165.86,363.8 168.9,364.93 168.9,358.96 L168.9,348.07 L168.9,339.13 L23.68,339.1 Z" id="Path" fill="#FFFFFF"></path>
                            <g transform="translate(26.000000, 342.000000)" fill="#3E3636" id="Path">
                                <path d="M2.21,15.01 C2.21,15.78 1.77,16.4 1.22,16.4 L1.22,16.4 C0.67,16.4 0.23,15.78 0.23,15.01 L0.23,1.53 C0.23,0.76 0.67,0.14 1.22,0.14 L1.22,0.14 C1.77,0.14 2.21,0.76 2.21,1.53 L2.21,15.01 Z"></path>
                                <path d="M5.8,15.01 C5.8,15.78 5.36,16.4 4.81,16.4 L4.81,16.4 C4.26,16.4 3.82,15.78 3.82,15.01 L3.82,1.53 C3.82,0.76 4.26,0.14 4.81,0.14 L4.81,0.14 C5.36,0.14 5.8,0.76 5.8,1.53 L5.8,15.01 Z"></path>
                                <path d="M9.38,15.01 C9.38,15.78 8.94,16.4 8.39,16.4 L8.39,16.4 C7.84,16.4 7.4,15.78 7.4,15.01 L7.4,1.53 C7.4,0.76 7.84,0.14 8.39,0.14 L8.39,0.14 C8.94,0.14 9.38,0.76 9.38,1.53 L9.38,15.01 Z"></path>
                                <path d="M15.87,15.01 C15.87,15.78 15.43,16.4 14.88,16.4 L14.88,16.4 C14.33,16.4 13.89,15.78 13.89,15.01 L13.89,1.53 C13.89,0.76 14.33,0.14 14.88,0.14 L14.88,0.14 C15.43,0.14 15.87,0.76 15.87,1.53 L15.87,15.01 Z"></path>
                                <path d="M19.46,15.01 C19.46,15.78 19.02,16.4 18.47,16.4 L18.47,16.4 C17.92,16.4 17.48,15.78 17.48,15.01 L17.48,1.53 C17.48,0.76 17.92,0.14 18.47,0.14 L18.47,0.14 C19.02,0.14 19.46,0.76 19.46,1.53 L19.46,15.01 Z"></path>
                                <path d="M26.32,15.01 C26.32,15.78 25.88,16.4 25.33,16.4 L25.33,16.4 C24.78,16.4 24.34,15.78 24.34,15.01 L24.34,1.53 C24.34,0.76 24.78,0.14 25.33,0.14 L25.33,0.14 C25.88,0.14 26.32,0.76 26.32,1.53 L26.32,15.01 Z"></path>
                                <path d="M29.91,15.01 C29.91,15.78 29.47,16.4 28.92,16.4 L28.92,16.4 C28.37,16.4 27.93,15.78 27.93,15.01 L27.93,1.53 C27.93,0.76 28.37,0.14 28.92,0.14 L28.92,0.14 C29.47,0.14 29.91,0.76 29.91,1.53 L29.91,15.01 Z"></path>
                                <path d="M33.5,15.01 C33.5,15.78 33.06,16.4 32.51,16.4 L32.51,16.4 C31.96,16.4 31.52,15.78 31.52,15.01 L31.52,1.53 C31.52,0.76 31.96,0.14 32.51,0.14 L32.51,0.14 C33.06,0.14 33.5,0.76 33.5,1.53 L33.5,15.01 Z"></path>
                                <path d="M39.98,15.01 C39.98,15.78 39.54,16.4 38.99,16.4 L38.99,16.4 C38.44,16.4 38,15.78 38,15.01 L38,1.53 C38,0.76 38.44,0.14 38.99,0.14 L38.99,0.14 C39.54,0.14 39.98,0.76 39.98,1.53 L39.98,15.01 Z"></path>
                                <path d="M43.57,15.01 C43.57,15.78 43.13,16.4 42.58,16.4 L42.58,16.4 C42.03,16.4 41.59,15.78 41.59,15.01 L41.59,1.53 C41.59,0.76 42.03,0.14 42.58,0.14 L42.58,0.14 C43.13,0.14 43.57,0.76 43.57,1.53 L43.57,15.01 Z"></path>
                                <path d="M50.44,15.01 C50.44,15.78 50,16.4 49.45,16.4 L49.45,16.4 C48.9,16.4 48.46,15.78 48.46,15.01 L48.46,1.53 C48.46,0.76 48.9,0.14 49.45,0.14 L49.45,0.14 C50,0.14 50.44,0.76 50.44,1.53 L50.44,15.01 Z"></path>
                                <path d="M54.02,15.01 C54.02,15.78 53.58,16.4 53.03,16.4 L53.03,16.4 C52.48,16.4 52.04,15.78 52.04,15.01 L52.04,1.53 C52.04,0.76 52.48,0.14 53.03,0.14 L53.03,0.14 C53.58,0.14 54.02,0.76 54.02,1.53 L54.02,15.01 Z"></path>
                                <path d="M57.61,15.01 C57.61,15.78 57.17,16.4 56.62,16.4 L56.62,16.4 C56.07,16.4 55.63,15.78 55.63,15.01 L55.63,1.53 C55.63,0.76 56.07,0.14 56.62,0.14 L56.62,0.14 C57.17,0.14 57.61,0.76 57.61,1.53 L57.61,15.01 Z"></path>
                                <path d="M64.1,15.01 C64.1,15.78 63.66,16.4 63.11,16.4 L63.11,16.4 C62.56,16.4 62.12,15.78 62.12,15.01 L62.12,1.53 C62.12,0.76 62.56,0.14 63.11,0.14 L63.11,0.14 C63.66,0.14 64.1,0.76 64.1,1.53 L64.1,15.01 Z"></path>
                                <path d="M67.68,15.01 C67.68,15.78 67.24,16.4 66.69,16.4 L66.69,16.4 C66.14,16.4 65.7,15.78 65.7,15.01 L65.7,1.53 C65.7,0.76 66.14,0.14 66.69,0.14 L66.69,0.14 C67.24,0.14 67.68,0.76 67.68,1.53 L67.68,15.01 Z"></path>
                                <path d="M74.55,15.02 C74.55,15.79 74.11,16.41 73.56,16.41 L73.56,16.41 C73.01,16.41 72.57,15.79 72.57,15.02 L72.57,1.54 C72.57,0.77 73.01,0.15 73.56,0.15 L73.56,0.15 C74.11,0.15 74.55,0.77 74.55,1.54 L74.55,15.02 Z"></path>
                                <path d="M78.14,15.02 C78.14,15.79 77.7,16.41 77.15,16.41 L77.15,16.41 C76.6,16.41 76.16,15.79 76.16,15.02 L76.16,1.54 C76.16,0.77 76.6,0.15 77.15,0.15 L77.15,0.15 C77.7,0.15 78.14,0.77 78.14,1.54 L78.14,15.02 Z"></path>
                                <path d="M81.72,15.02 C81.72,15.79 81.28,16.41 80.73,16.41 L80.73,16.41 C80.18,16.41 79.74,15.79 79.74,15.02 L79.74,1.54 C79.74,0.77 80.18,0.15 80.73,0.15 L80.73,0.15 C81.28,0.15 81.72,0.77 81.72,1.54 L81.72,15.02 Z"></path>
                                <path d="M88.21,15.02 C88.21,15.79 87.77,16.41 87.22,16.41 L87.22,16.41 C86.67,16.41 86.23,15.79 86.23,15.02 L86.23,1.54 C86.23,0.77 86.67,0.15 87.22,0.15 L87.22,0.15 C87.77,0.15 88.21,0.77 88.21,1.54 L88.21,15.02 Z"></path>
                                <path d="M91.8,15.02 C91.8,15.79 91.36,16.41 90.81,16.41 L90.81,16.41 C90.26,16.41 89.82,15.79 89.82,15.02 L89.82,1.54 C89.82,0.77 90.26,0.15 90.81,0.15 L90.81,0.15 C91.36,0.15 91.8,0.77 91.8,1.54 L91.8,15.02 Z"></path>
                                <path d="M98.66,15.02 C98.66,15.79 98.22,16.41 97.67,16.41 L97.67,16.41 C97.12,16.41 96.68,15.79 96.68,15.02 L96.68,1.54 C96.68,0.77 97.12,0.15 97.67,0.15 L97.67,0.15 C98.22,0.15 98.66,0.77 98.66,1.54 L98.66,15.02 Z"></path>
                                <path d="M102.25,15.02 C102.25,15.79 101.81,16.41 101.26,16.41 L101.26,16.41 C100.71,16.41 100.27,15.79 100.27,15.02 L100.27,1.54 C100.27,0.77 100.71,0.15 101.26,0.15 L101.26,0.15 C101.81,0.15 102.25,0.77 102.25,1.54 L102.25,15.02 Z"></path>
                                <path d="M105.84,15.02 C105.84,15.79 105.4,16.41 104.85,16.41 L104.85,16.41 C104.3,16.41 103.86,15.79 103.86,15.02 L103.86,1.54 C103.86,0.77 104.3,0.15 104.85,0.15 L104.85,0.15 C105.4,0.15 105.84,0.77 105.84,1.54 L105.84,15.02 Z"></path>
                                <path d="M112.32,15.02 C112.32,15.79 111.88,16.41 111.33,16.41 L111.33,16.41 C110.78,16.41 110.34,15.79 110.34,15.02 L110.34,1.54 C110.34,0.77 110.78,0.15 111.33,0.15 L111.33,0.15 C111.88,0.15 112.32,0.77 112.32,1.54 L112.32,15.02 Z"></path>
                                <path d="M115.91,15.02 C115.91,15.79 115.47,16.41 114.92,16.41 L114.92,16.41 C114.37,16.41 113.93,15.79 113.93,15.02 L113.93,1.54 C113.93,0.77 114.37,0.15 114.92,0.15 L114.92,0.15 C115.47,0.15 115.91,0.77 115.91,1.54 L115.91,15.02 Z"></path>
                                <path d="M122.78,15.02 C122.78,15.79 122.34,16.41 121.79,16.41 L121.79,16.41 C121.24,16.41 120.8,15.79 120.8,15.02 L120.8,1.54 C120.8,0.77 121.24,0.15 121.79,0.15 L121.79,0.15 C122.34,0.15 122.78,0.77 122.78,1.54 L122.78,15.02 Z"></path>
                                <path d="M126.36,15.02 C126.36,15.79 125.92,16.41 125.37,16.41 L125.37,16.41 C124.82,16.41 124.38,15.79 124.38,15.02 L124.38,1.54 C124.38,0.77 124.82,0.15 125.37,0.15 L125.37,0.15 C125.92,0.15 126.36,0.77 126.36,1.54 L126.36,15.02 Z"></path>
                                <path d="M129.95,15.02 C129.95,15.79 129.51,16.41 128.96,16.41 L128.96,16.41 C128.41,16.41 127.97,15.79 127.97,15.02 L127.97,1.54 C127.97,0.77 128.41,0.15 128.96,0.15 L128.96,0.15 C129.51,0.15 129.95,0.77 129.95,1.54 L129.95,15.02 Z"></path>
                                <path d="M136.44,15.02 C136.44,15.79 136,16.41 135.45,16.41 L135.45,16.41 C134.9,16.41 134.46,15.79 134.46,15.02 L134.46,1.54 C134.46,0.77 134.9,0.15 135.45,0.15 L135.45,0.15 C136,0.15 136.44,0.77 136.44,1.54 L136.44,15.02 Z"></path>
                                <path d="M140.02,15.02 C140.02,15.79 139.58,16.41 139.03,16.41 L139.03,16.41 C138.48,16.41 138.04,15.79 138.04,15.02 L138.04,1.54 C138.04,0.77 138.48,0.15 139.03,0.15 L139.03,0.15 C139.58,0.15 140.02,0.77 140.02,1.54 L140.02,15.02 Z"></path>
                            </g>
                        </g>
                    </g>
                    <g transform="translate(5.000000, 7.000000)" fill="#666666">
                        <rect id="Rectangle" transform="translate(0.792330, 162.798460) rotate(-90.011615) translate(-0.792330, -162.798460) " x="-161.202674" y="162.40346" width="323.990007" height="1"></rect>
                        <rect id="Rectangle" transform="translate(5.428191, 162.804460) rotate(-90.011615) translate(-5.428191, -162.804460) " x="-156.566812" y="162.40946" width="323.990007" height="1"></rect>
                        <rect id="Rectangle" transform="translate(10.064451, 162.800660) rotate(-90.011615) translate(-10.064451, -162.800660) " x="-151.930553" y="162.40566" width="323.990007" height="1"></rect>
                        <rect id="Rectangle" transform="translate(14.700212, 162.806660) rotate(-90.011615) translate(-14.700212, -162.806660) " x="-147.294791" y="162.41166" width="323.990007" height="1"></rect>
                        <rect id="Rectangle" transform="translate(19.336471, 162.802660) rotate(-90.011615) translate(-19.336471, -162.802660) " x="-142.658532" y="162.40766" width="323.990007" height="1"></rect>
                        <rect id="Rectangle" transform="translate(23.972731, 162.798860) rotate(-90.011615) translate(-23.972731, -162.798860) " x="-138.022273" y="162.40386" width="323.990007" height="1"></rect>
                        <rect id="Rectangle" transform="translate(28.608492, 162.804860) rotate(-90.011615) translate(-28.608492, -162.804860) " x="-133.386511" y="162.40986" width="323.990007" height="1"></rect>
                        <rect id="Rectangle" transform="translate(33.244751, 162.801060) rotate(-90.011615) translate(-33.244751, -162.801060) " x="-128.750252" y="162.40606" width="323.990007" height="1"></rect>
                        <rect id="Rectangle" transform="translate(37.880511, 162.797060) rotate(-90.011615) translate(-37.880511, -162.797060) " x="-124.114493" y="162.40206" width="323.990007" height="1"></rect>
                        <path d="M46.72,28.87 L46.78,324.77 L47.57,324.77 L47.51,31.2 C47.21,30.44 46.95,29.66 46.72,28.87 Z" id="Path"></path>
                        <path d="M51.82,62.58 C51.64,61.95 51.5,61.31 51.37,60.66 L51.42,324.77 L52.21,324.77 L52.16,64.79 C52.04,64.06 51.93,63.32 51.82,62.58 Z" id="Path"></path>
                        <path d="M56.01,88.17 L56.05,324.78 L56.84,324.78 L56.8,91.56 C56.53,90.45 56.26,89.32 56.01,88.17 Z" id="Path"></path>
                        <path d="M60.89,107.39 C60.73,106.45 60.69,105.47 60.73,104.48 C60.7,104.38 60.67,104.27 60.65,104.17 L60.69,324.78 L61.48,324.78 L61.44,109.88 C61.22,109.05 61.03,108.22 60.89,107.39 Z" id="Path"></path>
                        <path d="M65.29,124.08 L65.33,324.77 L66.12,324.77 L66.08,126.98 C65.81,126.02 65.54,125.06 65.29,124.08 Z" id="Path"></path>
                        <path d="M69.93,139.37 L69.96,324.78 L70.75,324.78 L70.72,141.64 C70.45,140.89 70.19,140.13 69.93,139.37 Z" id="Path"></path>
                        <path d="M74.57,151.36 L74.6,324.77 L75.39,324.77 L75.36,153.21 C75.09,152.6 74.83,151.98 74.57,151.36 Z" id="Path"></path>
                        <path d="M79.2,162.78 L79.23,324.78 L80.02,324.78 L79.99,164.62 C79.73,164 79.47,163.39 79.2,162.78 Z" id="Path"></path>
                        <path d="M83.84,174.39 L83.87,324.78 L84.66,324.78 L84.63,176.55 C84.37,175.83 84.1,175.11 83.84,174.39 Z" id="Path"></path>
                        <path d="M88.48,186.18 L88.51,324.78 L89.3,324.78 L89.27,187.98 C89,187.37 88.74,186.78 88.48,186.18 Z" id="Path"></path>
                        <path d="M93.12,195.75 L93.14,324.78 L93.93,324.78 L93.91,197.22 C93.64,196.73 93.38,196.24 93.12,195.75 Z" id="Path"></path>
                        <path d="M97.76,203.65 L97.78,324.77 L98.57,324.77 L98.55,204.87 C98.28,204.47 98.02,204.06 97.76,203.65 Z" id="Path"></path>
                        <path d="M102.39,210.3 L102.41,324.77 L103.2,324.77 L103.18,211.35 C102.92,211.01 102.66,210.65 102.39,210.3 Z" id="Path"></path>
                        <path d="M107.03,215.97 L107.05,324.78 L107.84,324.78 L107.82,216.85 C107.56,216.55 107.29,216.26 107.03,215.97 Z" id="Path"></path>
                        <path d="M111.96,221.09 C111.86,220.99 111.76,220.9 111.66,220.8 L111.68,324.77 L112.47,324.77 L112.45,221.86 C112.29,221.61 112.13,221.35 111.96,221.09 Z" id="Path"></path>
                        <path d="M116.3,227.5 L116.32,324.78 L117.11,324.78 L117.09,228.51 C116.83,228.17 116.56,227.83 116.3,227.5 Z" id="Path"></path>
                        <path d="M120.94,232.69 L120.96,324.77 L121.75,324.77 L121.73,233.43 C121.47,233.19 121.2,232.94 120.94,232.69 Z" id="Path"></path>
                        <path d="M125.58,236.84 L125.6,324.78 L126.39,324.78 L126.37,237.72 C126.1,237.43 125.83,237.14 125.58,236.84 Z" id="Path"></path>
                        <path d="M130.21,240.91 L130.23,324.78 L131.02,324.78 L131,241.42 C130.74,241.25 130.47,241.08 130.21,240.91 Z" id="Path"></path>
                        <path d="M134.85,243.74 L134.87,324.77 L135.66,324.77 L135.64,244.24 C135.38,244.08 135.11,243.91 134.85,243.74 Z" id="Path"></path>
                        <path d="M139.49,246.62 L139.5,324.77 L140.29,324.77 L140.28,247.07 C140.01,246.92 139.75,246.77 139.49,246.62 Z" id="Path"></path>
                        <path d="M144.12,249.19 L144.13,324.78 L144.92,324.78 L144.91,249.59 C144.65,249.46 144.38,249.33 144.12,249.19 Z" id="Path"></path>
                        <path d="M148.76,251.04 L148.77,324.78 L149.56,324.78 L149.55,251.32 C149.29,251.22 149.02,251.13 148.76,251.04 Z" id="Path"></path>
                        <path d="M153.4,252.62 L153.41,324.78 L154.2,324.78 L154.19,252.89 C153.92,252.79 153.66,252.71 153.4,252.62 Z" id="Path"></path>
                        <path d="M158.03,254.09 L158.04,324.77 L158.83,324.77 L158.82,254.33 C158.56,254.25 158.3,254.17 158.03,254.09 Z" id="Path"></path>
                        <path d="M162.67,255.4 L162.68,324.77 L163.47,324.77 L163.46,255.6 C163.2,255.54 162.93,255.47 162.67,255.4 Z" id="Path"></path>
                        <path d="M167.31,256.49 L167.32,324.77 L168.11,324.77 L168.1,256.65 C167.83,256.6 167.57,256.55 167.31,256.49 Z" id="Path"></path>
                        <path d="M171.94,257.32 L171.95,324.78 L172.74,324.78 L172.73,257.43 C172.47,257.39 172.21,257.36 171.94,257.32 Z" id="Path"></path>
                        <path d="M176.58,257.82 L176.59,324.77 L177.38,324.77 L177.37,257.87 C177.11,257.86 176.84,257.84 176.58,257.82 Z" id="Path"></path>
                        <path d="M181.21,257.97 L181.22,324.77 L182.01,324.77 L182,257.95 C181.74,257.96 181.48,257.97 181.21,257.97 Z" id="Path"></path>
                        <rect id="Rectangle" transform="translate(42.655944, 162.802160) rotate(-90.011615) translate(-42.655944, -162.802160) " x="-119.33906" y="162.40716" width="323.990007" height="1"></rect>
                    </g>
                </g>
                <g transform="translate(68.000000, 209.000000)" fill-rule="nonzero">
                    <path d="M5.73,27.46 C6.89,25.39 8.21,23.87 9.67,22.9 C11.13,21.93 12.43,21.49 13.58,21.59 C15.19,21.72 16.56,22.77 17.69,24.73 C18.82,26.69 19.22,29.55 18.91,33.32 C18.66,36.29 15.37,42.29 14.59,43.08 C13.67,44 12.13,45.42 7.64,46.8 C7.45,46.75 4.44,47.44 4.08,47.36 L0.89,47.09 L3.2,0.18 L6.39,0.45 L5.73,27.46 Z M3.88,44.04 L3.88,44.04 C5.35,44.29 4.88,44.22 5.85,44.3 C7.79,44.46 12.32,39.38 14.32,34.36 C15.28,31.96 13.05,30.04 12.4,29.44 C9.83,27.11 6.56,32.43 3.88,44.04 Z" id="Shape" fill="#262526"></path>
                    <path d="M29.37,39.84 C28.07,36.81 28.46,33.48 30.55,29.84 C32.64,26.21 35.93,23.42 40.42,21.49 C44.64,19.67 48.72,19.14 52.66,19.9 C56.59,20.66 59.23,22.59 60.56,25.69 C61.91,28.83 61.49,32.27 59.31,36.01 C57.13,39.76 53.9,42.55 49.63,44.39 C45.41,46.21 41.31,46.68 37.34,45.8 C33.36,44.92 30.71,42.94 29.37,39.84 Z M35.2,37.14 C36.47,40.1 38.5,42.15 41.27,43.28 C44.04,44.41 46.85,44.37 49.69,43.15 C52.29,42.03 54.18,40.13 55.36,37.43 C56.54,34.74 56.48,31.87 55.17,28.82 C54,26.1 52,24.09 49.18,22.78 C46.36,21.47 43.43,21.47 40.4,22.78 C37.58,23.99 35.7,25.95 34.73,28.66 C33.79,31.37 33.94,34.2 35.2,37.14 Z" id="Shape" fill="#262526"></path>
                    <path d="M128.87,47.25 C127.75,44.66 128.09,41.8 129.88,38.69 C131.67,35.58 134.48,33.2 138.32,31.55 C141.93,30 145.42,29.54 148.79,30.19 C152.16,30.84 154.41,32.49 155.55,35.14 C156.7,37.82 156.35,40.77 154.48,43.97 C152.61,47.18 149.85,49.56 146.2,51.14 C142.59,52.69 139.08,53.1 135.69,52.35 C132.28,51.61 130.01,49.91 128.87,47.25 Z M133.86,44.95 C134.95,47.49 136.68,49.24 139.06,50.21 C141.43,51.18 143.83,51.14 146.26,50.1 C148.48,49.14 150.1,47.51 151.11,45.21 C152.12,42.91 152.07,40.45 150.95,37.84 C149.95,35.51 148.24,33.79 145.83,32.67 C143.42,31.55 140.91,31.55 138.32,32.67 C135.91,33.71 134.3,35.38 133.47,37.7 C132.64,40.01 132.77,42.43 133.86,44.95 Z" id="Shape" fill="#FFFFFF"></path>
                    <path d="M236.87,24.61 C236.09,21.56 237.02,18.45 239.67,15.29 C242.32,12.13 246.02,9.94 250.75,8.73 C255.2,7.59 259.3,7.64 263.05,8.9 C266.8,10.16 269.07,12.35 269.87,15.47 C270.68,18.63 269.7,21.83 266.94,25.09 C264.18,28.34 260.54,30.55 256.04,31.71 C251.59,32.85 247.48,32.74 243.72,31.37 C239.96,29.98 237.67,27.73 236.87,24.61 Z M243.05,22.86 C243.82,25.84 245.47,28.06 248.01,29.52 C250.55,30.98 253.32,31.32 256.31,30.55 C259.05,29.85 261.22,28.3 262.83,25.91 C264.44,23.52 264.85,20.79 264.06,17.71 C263.36,14.97 261.72,12.79 259.16,11.16 C256.6,9.53 253.72,9.13 250.52,9.95 C247.55,10.71 245.37,12.31 243.98,14.75 C242.6,17.19 242.29,19.89 243.05,22.86 Z" id="Shape" fill="#262526"></path>
                    <path d="M353.14,36.37 C352.32,33.17 353.22,29.94 355.84,26.67 C358.46,23.4 362.14,21.16 366.88,19.94 C371.33,18.8 375.44,18.9 379.22,20.26 C382.99,21.61 385.3,23.93 386.14,27.2 C386.99,30.51 386.05,33.84 383.31,37.21 C380.57,40.57 376.95,42.84 372.45,43.99 C368,45.13 363.88,44.97 360.09,43.49 C356.29,42.01 353.98,39.64 353.14,36.37 Z M359.31,34.61 C360.11,37.73 361.8,40.07 364.36,41.62 C366.93,43.17 369.71,43.56 372.7,42.79 C375.44,42.09 377.6,40.5 379.19,38.02 C380.78,35.54 381.16,32.69 380.33,29.48 C379.59,26.61 377.93,24.31 375.35,22.59 C372.77,20.86 369.87,20.41 366.68,21.23 C363.71,21.99 361.54,23.64 360.17,26.17 C358.8,28.68 358.52,31.5 359.31,34.61 Z" id="Shape" fill="#262526"></path>
                    <g transform="translate(329.000000, 5.000000)" fill="#262526">
                        <rect id="Rectangle" x="0.85" y="0.99" width="2.08" height="34.51"></rect>
                        <rect id="Rectangle" x="11.5" y="14.23" width="2.08" height="34.51"></rect>
                        <path d="M1.29,35.7 C1.08,35.35 0.89,34.96 0.72,34.52 C0.66,34.36 0.58,34.15 0.5,33.9 C0.41,33.65 0.38,33.5 0.39,33.46 C0.39,33.39 0.44,33.26 0.56,33.08 C0.68,32.9 0.79,32.77 0.88,32.7 C1.39,32.28 1.9,31.92 2.42,31.62 C2.93,31.33 3.46,31.06 3.99,30.82 C4.52,30.58 5.07,30.35 5.65,30.15 C6.22,29.95 6.83,29.73 7.46,29.48 C7.61,29.42 7.9,29.31 8.31,29.15 C8.75,28.98 9.2,28.81 9.68,28.65 C10.16,28.49 10.6,28.32 11.01,28.17 C11.42,28.01 11.72,27.9 11.89,27.83 C12.36,27.76 12.77,27.94 13.09,28.36 C13.42,28.78 13.69,29.27 13.9,29.84 C14.05,30.24 14.07,30.61 13.95,30.96 C13.83,31.31 13.66,31.63 13.42,31.93 C13.18,32.23 12.93,32.49 12.65,32.71 C12.37,32.93 12.15,33.08 11.97,33.14 C11.95,33.15 11.85,33.19 11.68,33.25 C11.53,33.31 11.34,33.39 11.12,33.49 C10.9,33.6 10.67,33.69 10.43,33.79 C10.21,33.87 10.04,33.94 9.91,33.99 C9.78,34.04 9.58,34.12 9.32,34.22 C9.08,34.31 8.83,34.4 8.57,34.48 C8.31,34.56 8.09,34.64 7.89,34.72 C7.69,34.8 7.58,34.84 7.56,34.85 C7.36,34.93 7.02,35.03 6.52,35.17 C6.02,35.31 5.49,35.45 4.93,35.62 C4.37,35.78 3.84,35.93 3.34,36.06 C2.84,36.2 2.49,36.29 2.28,36.33 C1.83,36.26 1.5,36.06 1.29,35.7 Z M1.25,20.96 C1.06,20.63 0.88,20.24 0.7,19.78 C0.65,19.65 0.57,19.44 0.48,19.15 C0.38,18.87 0.33,18.71 0.32,18.67 C0.29,18.6 0.3,18.5 0.35,18.35 C0.39,18.2 0.43,18.1 0.46,18.05 C0.51,17.99 0.62,17.9 0.79,17.78 C0.96,17.66 1.13,17.52 1.33,17.37 C1.52,17.22 1.71,17.08 1.88,16.96 C2.06,16.84 2.2,16.75 2.31,16.71 C2.56,16.58 2.93,16.38 3.43,16.11 C3.93,15.84 4.44,15.58 4.96,15.32 C5.49,15.06 5.97,14.83 6.4,14.62 C6.83,14.42 7.1,14.29 7.21,14.25 C7.36,14.19 7.66,14.1 8.1,13.96 C8.54,13.83 9,13.7 9.49,13.57 C9.98,13.44 10.44,13.33 10.88,13.23 C11.32,13.13 11.63,13.07 11.82,13.04 C12.34,13.1 12.73,13.25 12.98,13.47 C13.23,13.7 13.48,14.14 13.74,14.8 C13.99,15.46 14,16.04 13.75,16.53 C13.5,17.02 13.15,17.44 12.7,17.79 C12.24,18.13 11.75,18.42 11.23,18.64 C10.7,18.86 10.3,19.03 10.01,19.14 C9.88,19.19 9.69,19.26 9.46,19.35 C9.24,19.43 9.02,19.51 8.78,19.58 C8.54,19.65 8.33,19.73 8.13,19.8 C7.96,19.87 7.86,19.9 7.84,19.91 C7.64,19.99 7.27,20.1 6.73,20.25 C6.19,20.4 5.62,20.56 5.04,20.73 C4.45,20.9 3.89,21.06 3.35,21.21 C2.81,21.36 2.43,21.46 2.22,21.5 C1.76,21.47 1.44,21.28 1.25,20.96 Z M2.75,35.51 L3.76,35.12 L3.17,33.59 L2.16,33.98 L2.75,35.51 Z" id="Shape"></path>
                    </g>
                </g>
                <text id="Meerbach" fill="#000000" font-family="Helvetica" font-size="39" font-weight="normal">
                    <tspan x="169.397" y="416.9753">Meerbach</tspan>
                </text>
            </g>
        </g>
    </g>
</svg>
